<svg width="32" height="35" viewBox="0 0 32 35" fill="none" xmlns="http://www.w3.org/2000/svg">
<path d="M27 0.275879H5C2.23858 0.275879 0 2.63576 0 5.54681V28.7389C0 31.65 2.23858 34.0099 5 34.0099H27C29.7614 34.0099 32 31.65 32 28.7389V5.54681C32 2.63576 29.7614 0.275879 27 0.275879Z" fill="#201E21"/>
<path d="M24 17.143C24 12.5045 20.4 8.70947 16 8.70947C11.6 8.70947 8 12.5045 8 17.143C8 21.3597 10.9 24.8385 14.7 25.471V19.5676H12.7V17.143H14.7V15.2454C14.7 13.1371 15.9 11.9775 17.7 11.9775C18.6 11.9775 19.5 12.1883 19.5 12.1883V14.2967H18.5C17.5 14.2967 17.2 14.9292 17.2 15.5617V17.143H19.4L19 19.5676H17.1V25.5765C21.1 24.944 24 21.3597 24 17.143Z" fill="white"/>
</svg>
