<svg width="225" height="45" viewBox="0 0 225 45" fill="none" xmlns="http://www.w3.org/2000/svg">
<path d="M3.89474 19.0523V33.6313H9.73684V19.0523H3.89474ZM15.5789 19.0523V33.6313H21.4211V19.0523H15.5789ZM0 44.0448H37V37.7967H0V44.0448ZM27.2632 19.0523V33.6313H33.1053V19.0523H27.2632ZM18.5 0.307877L0 10.7214V14.8869H37V10.7214L18.5 0.307877Z" fill="white"/>
<path d="M54.4389 32.8095C52.6592 32.8095 51.0596 32.4815 49.64 31.8254C48.2205 31.1693 47.0869 30.2063 46.2395 28.9365C45.4132 27.6455 45 26.0899 45 24.2698C45 23 45.2225 21.6243 45.6674 20.1429C46.642 16.9683 48.1145 14.6825 50.0849 13.2857C52.0554 11.8677 54.1635 11.1587 56.4093 11.1587C57.617 11.1587 58.687 11.3386 59.6192 11.6984C60.5514 12.0582 61.4095 12.5767 62.1935 13.254L63.0515 12.5873C63.6236 12.1429 64.1003 11.836 64.4817 11.6667C64.8842 11.4974 65.3292 11.4127 65.8165 11.4127C66.3462 11.4127 66.7699 11.5291 67.0877 11.7619C67.4055 11.9947 67.5644 12.3333 67.5644 12.7778C67.5644 13.0106 67.5221 13.2434 67.4373 13.4762L65.6576 18.4286C65.4669 19 65.2338 19.4021 64.9584 19.6349C64.7042 19.8677 64.3122 19.9841 63.7825 19.9841C63.2316 19.9841 62.7761 19.7937 62.4159 19.4127C62.0769 19.0106 61.685 18.3333 61.24 17.381C60.7315 16.3862 60.3184 15.7302 60.0006 15.4127C59.6828 15.0952 59.2167 14.9365 58.6022 14.9365C57.7335 14.9365 56.8966 15.4762 56.0915 16.5556C55.2864 17.6138 54.5555 19.2116 53.8986 21.3492C53.3478 23.1481 53.0723 24.6508 53.0723 25.8571C53.0723 26.9153 53.2736 27.709 53.6762 28.2381C54.0787 28.746 54.619 29 55.297 29C56.2928 29 57.1085 28.7778 57.7441 28.3333C58.4009 27.8889 59.0683 27.2857 59.7463 26.5238C60.1701 26.0582 60.5091 25.7196 60.7633 25.5079C61.0388 25.2751 61.3248 25.1587 61.6214 25.1587C62.0028 25.1587 62.4053 25.3492 62.8291 25.7302C63.2528 26.1111 63.4541 26.4921 63.4329 26.873C63.4541 27.3386 63.0727 28.0582 62.2888 29.0317C61.5261 30.0053 60.4561 30.8836 59.0789 31.6667C57.7229 32.4286 56.1763 32.8095 54.4389 32.8095Z" fill="white"/>
<path d="M80.2403 11C82.9099 11 84.9968 11.6349 86.5011 12.9048C88.0054 14.1534 88.7576 15.963 88.7576 18.3333C88.7576 19.455 88.5881 20.6614 88.2491 21.9524C87.6135 24.3228 86.6282 26.3333 85.2934 27.9841C83.9586 29.6349 82.3696 30.8836 80.5263 31.7302C78.683 32.5767 76.6808 33 74.5197 33C71.8713 33 69.795 32.3757 68.2907 31.127C66.7864 29.8571 66.0342 28.037 66.0342 25.6667C66.0342 24.5873 66.2143 23.3492 66.5745 21.9524C67.1889 19.6032 68.153 17.6138 69.4666 15.9841C70.8014 14.3333 72.3798 13.0952 74.2019 12.2698C76.0452 11.4233 78.058 11 80.2403 11ZM79.6682 14.1111C79.0326 14.1111 78.4606 14.3651 77.9521 14.873C77.4436 15.381 76.9351 16.2169 76.4266 17.381C75.9393 18.5238 75.4096 20.1217 74.8375 22.1746C73.99 25.1376 73.5663 27.1799 73.5663 28.3016C73.5663 28.9577 73.6828 29.4339 73.9159 29.7302C74.1489 30.0265 74.5197 30.1746 75.0282 30.1746C75.6638 30.1746 76.2359 29.9206 76.7444 29.4127C77.2529 28.8836 77.7508 28.0476 78.2381 26.9048C78.7254 25.7619 79.2657 24.1852 79.8589 22.1746C80.6852 19.254 81.0984 17.2011 81.0984 16.0159C81.0984 15.3386 80.9818 14.8519 80.7488 14.5556C80.5157 14.2593 80.1555 14.1111 79.6682 14.1111Z" fill="white"/>
<path d="M92.0437 21.4444C92.192 20.8307 92.4992 20.3545 92.9653 20.0159C93.4314 19.6772 94.0035 19.5079 94.6815 19.5079H102.086C103.252 19.5079 103.834 19.963 103.834 20.873C103.834 21.1058 103.813 21.2963 103.771 21.4444C103.368 22.7354 102.478 23.381 101.101 23.381H93.6963C93.1242 23.381 92.6899 23.2751 92.3932 23.0635C92.0966 22.8307 91.9483 22.5026 91.9483 22.0794C91.9483 21.8677 91.9801 21.6561 92.0437 21.4444Z" fill="white"/>
<path d="M124.375 24.4286C124.969 24.4286 125.414 24.5556 125.71 24.8095C126.028 25.0423 126.187 25.381 126.187 25.8254C126.187 26.0159 126.155 26.2275 126.092 26.4603L125.043 30.1746C124.767 31.0847 124.375 31.7196 123.867 32.0794C123.38 32.4392 122.649 32.619 121.674 32.619H106.737C106.292 32.619 105.953 32.545 105.72 32.3968C105.466 32.2487 105.339 32.0476 105.339 31.7936C105.339 31.6667 105.371 31.5291 105.434 31.381C105.498 31.2116 105.604 31.0741 105.752 30.9683C105.9 30.8413 106.059 30.7249 106.229 30.619C106.568 30.4074 106.843 30.1958 107.055 29.9841C107.267 29.7513 107.447 29.381 107.595 28.873L111.472 15.1905C111.557 14.9153 111.6 14.6508 111.6 14.3968C111.6 14.164 111.557 13.9735 111.472 13.8254C111.409 13.6561 111.314 13.4656 111.186 13.254C110.996 12.9788 110.9 12.7566 110.9 12.5873C110.9 12.5238 110.922 12.4074 110.964 12.2381C111.049 11.963 111.229 11.7725 111.504 11.6667C111.801 11.5397 112.246 11.4762 112.839 11.4762H120.308C120.752 11.4762 121.091 11.5503 121.325 11.6984C121.579 11.8254 121.706 12.0159 121.706 12.2698C121.706 12.3757 121.674 12.5132 121.611 12.6825C121.547 12.8307 121.452 12.9683 121.325 13.0952C121.219 13.2011 121.113 13.2857 121.007 13.3492C120.922 13.3915 120.858 13.4339 120.816 13.4762C120.477 13.6667 120.202 13.8783 119.99 14.1111C119.778 14.3439 119.598 14.7037 119.449 15.1905L115.35 29.5714H117.32C117.807 29.5714 118.221 29.4868 118.56 29.3175C118.92 29.1481 119.291 28.8307 119.672 28.3651L121.865 25.7619C122.267 25.2963 122.649 24.9577 123.009 24.746C123.39 24.5344 123.846 24.4286 124.375 24.4286Z" fill="white"/>
<path d="M140.977 11.4762C141.422 11.4762 141.761 11.5503 141.994 11.6984C142.248 11.8254 142.375 12.0159 142.375 12.2698C142.375 12.3757 142.343 12.5132 142.28 12.6825C142.216 12.8307 142.121 12.9683 141.994 13.0952C141.888 13.2011 141.782 13.2857 141.676 13.3492C141.591 13.3915 141.528 13.4339 141.485 13.4762C141.146 13.6667 140.871 13.8783 140.659 14.1111C140.447 14.3439 140.267 14.7037 140.119 15.1905L136.273 28.873C136.188 29.1481 136.146 29.4127 136.146 29.6667C136.146 29.9206 136.178 30.1323 136.241 30.3016C136.326 30.4709 136.443 30.6508 136.591 30.8413C136.782 31.1164 136.877 31.3386 136.877 31.5079C136.877 31.5503 136.856 31.6561 136.813 31.8254C136.729 32.1217 136.538 32.3333 136.241 32.4603C135.945 32.5661 135.5 32.619 134.907 32.619H127.438C126.993 32.619 126.654 32.545 126.421 32.3968C126.167 32.2487 126.04 32.0476 126.04 31.7936C126.04 31.6667 126.072 31.5291 126.135 31.381C126.22 31.1481 126.358 30.9683 126.548 30.8413C126.739 30.7143 126.855 30.6402 126.898 30.619C127.237 30.4074 127.512 30.1958 127.724 29.9841C127.936 29.7513 128.116 29.381 128.264 28.873L132.142 15.1905C132.226 14.9153 132.269 14.6508 132.269 14.3968C132.269 14.164 132.226 13.9735 132.142 13.8254C132.078 13.6561 131.983 13.4656 131.856 13.254C131.665 12.9788 131.57 12.7566 131.57 12.5873C131.57 12.5238 131.591 12.4074 131.633 12.2381C131.718 11.963 131.898 11.7725 132.173 11.6667C132.47 11.5397 132.915 11.4762 133.508 11.4762H140.977Z" fill="white"/>
<path d="M166.761 14.5238C166.761 15.2857 166.591 15.9418 166.252 16.4921C165.934 17.0423 165.521 17.4656 165.013 17.7619C164.504 18.037 163.996 18.1746 163.487 18.1746C162.979 18.1746 162.512 18.0688 162.089 17.8571C161.686 17.6455 161.347 17.3598 161.072 17L153.413 29.8889C152.84 30.8624 152.311 31.5608 151.824 31.9841C151.336 32.4074 150.785 32.619 150.171 32.619C149.514 32.619 148.984 32.4074 148.582 31.9841C148.2 31.5397 147.925 30.8413 147.756 29.8889L145.086 15.2222C145.022 14.8413 144.906 14.5344 144.736 14.3016C144.567 14.0688 144.344 13.8148 144.069 13.5397C143.857 13.3492 143.709 13.2011 143.624 13.0952C143.539 12.9683 143.497 12.8201 143.497 12.6508C143.391 11.8677 143.857 11.4762 144.895 11.4762H152.84C153.328 11.4762 153.699 11.582 153.953 11.7937C154.207 11.9841 154.324 12.2487 154.302 12.5873C154.302 12.7778 154.26 12.9365 154.175 13.0635C154.112 13.1905 153.995 13.3492 153.826 13.5397C153.635 13.7513 153.487 13.9524 153.381 14.1429C153.275 14.3333 153.222 14.5661 153.222 14.8413C153.222 14.9683 153.232 15.0741 153.254 15.1587L154.461 22.5556L158.688 15.0635C159.43 13.709 160.161 12.7566 160.881 12.2064C161.601 11.6349 162.491 11.3492 163.551 11.3492C164.525 11.3492 165.299 11.6349 165.871 12.2064C166.464 12.7566 166.761 13.5291 166.761 14.5238Z" fill="white"/>
<path d="M177.134 11.4762C177.579 11.4762 177.918 11.5503 178.151 11.6984C178.405 11.8254 178.532 12.0159 178.532 12.2698C178.532 12.3757 178.5 12.5132 178.437 12.6825C178.373 12.8307 178.278 12.9683 178.151 13.0952C178.045 13.2011 177.939 13.2857 177.833 13.3492C177.748 13.3915 177.685 13.4339 177.642 13.4762C177.303 13.6667 177.028 13.8783 176.816 14.1111C176.604 14.3439 176.424 14.7037 176.276 15.1905L172.43 28.873C172.345 29.1481 172.303 29.4127 172.303 29.6667C172.303 29.9206 172.335 30.1323 172.398 30.3016C172.483 30.4709 172.6 30.6508 172.748 30.8413C172.939 31.1164 173.034 31.3386 173.034 31.5079C173.034 31.5503 173.013 31.6561 172.97 31.8254C172.886 32.1217 172.695 32.3333 172.398 32.4603C172.102 32.5661 171.657 32.619 171.064 32.619H163.595C163.15 32.619 162.811 32.545 162.578 32.3968C162.324 32.2487 162.197 32.0476 162.197 31.7936C162.197 31.6667 162.229 31.5291 162.292 31.381C162.377 31.1481 162.515 30.9683 162.705 30.8413C162.896 30.7143 163.012 30.6402 163.055 30.619C163.394 30.4074 163.669 30.1958 163.881 29.9841C164.093 29.7513 164.273 29.381 164.421 28.873L168.299 15.1905C168.383 14.9153 168.426 14.6508 168.426 14.3968C168.426 14.164 168.383 13.9735 168.299 13.8254C168.235 13.6561 168.14 13.4656 168.013 13.254C167.822 12.9788 167.727 12.7566 167.727 12.5873C167.727 12.5238 167.748 12.4074 167.79 12.2381C167.875 11.963 168.055 11.7725 168.33 11.6667C168.627 11.5397 169.072 11.4762 169.665 11.4762H177.134Z" fill="white"/>
<path d="M201.591 11.4762C202.46 11.4762 202.894 11.7513 202.894 12.3016C202.894 12.4497 202.884 12.5556 202.863 12.619C202.799 12.8307 202.704 13 202.577 13.127C202.449 13.2328 202.269 13.3598 202.036 13.5079C201.719 13.6984 201.454 13.9101 201.242 14.1429C201.03 14.3757 200.85 14.7354 200.702 15.2222L196.761 29.3175C196.4 30.5873 195.945 31.4762 195.394 31.9841C194.864 32.4921 194.123 32.746 193.169 32.746C192.322 32.746 191.612 32.5026 191.04 32.0159C190.489 31.5079 189.97 30.7354 189.483 29.6984L184.684 19.6032L182.014 28.873C181.951 29.1481 181.919 29.3915 181.919 29.6032C181.919 29.8783 181.961 30.1111 182.046 30.3016C182.152 30.4709 182.29 30.6508 182.459 30.8413C182.692 31.1164 182.809 31.3492 182.809 31.5397C182.809 31.6667 182.798 31.7619 182.777 31.8254C182.692 32.1217 182.502 32.3333 182.205 32.4603C181.908 32.5661 181.463 32.619 180.87 32.619H177.406C176.537 32.619 176.103 32.3439 176.103 31.7936C176.103 31.6455 176.114 31.5397 176.135 31.4762C176.198 31.2645 176.294 31.1058 176.421 31C176.548 30.873 176.728 30.7354 176.961 30.5873C177.279 30.3968 177.544 30.1852 177.756 29.9524C177.968 29.7196 178.148 29.3598 178.296 28.873L182.332 14.619L181.824 13.5714C181.612 13.1481 181.506 12.7778 181.506 12.4603C181.506 11.8042 181.93 11.4762 182.777 11.4762H187.481C188.159 11.4762 188.667 11.6349 189.006 11.9524C189.366 12.2487 189.748 12.7884 190.15 13.5714L194.79 22.873L196.983 15.2222C197.047 14.9259 197.078 14.6825 197.078 14.4921C197.078 14.2169 197.026 13.9947 196.92 13.8254C196.835 13.6349 196.708 13.4444 196.538 13.254C196.305 12.9788 196.189 12.746 196.189 12.5556C196.189 12.4286 196.199 12.3333 196.22 12.2698C196.305 11.9735 196.496 11.7725 196.792 11.6667C197.089 11.5397 197.534 11.4762 198.127 11.4762H201.591Z" fill="white"/>
<path d="M209.332 32.8095C207.912 32.8095 206.62 32.5026 205.455 31.8889C204.311 31.254 203.4 30.3333 202.722 29.127C202.044 27.8995 201.705 26.4392 201.705 24.746C201.705 23.455 201.927 22.0159 202.372 20.4286C203.347 17.0423 204.872 14.6508 206.948 13.254C209.046 11.8571 211.281 11.1587 213.654 11.1587C215.815 11.1587 217.765 11.9418 219.502 13.5079L220.455 12.5873C220.985 12.1429 221.441 11.836 221.822 11.6667C222.203 11.4974 222.648 11.4127 223.157 11.4127C223.708 11.4127 224.152 11.5503 224.492 11.8254C224.83 12.0794 225 12.4286 225 12.873C225 13.0423 224.968 13.2434 224.905 13.4762L223.761 17.4762C223.549 18.1534 223.294 18.6296 222.998 18.9048C222.722 19.1799 222.341 19.3175 221.854 19.3175C221.345 19.3175 220.89 19.1905 220.487 18.9365C220.106 18.6825 219.661 18.2275 219.152 17.5714C218.474 16.6825 217.87 16.0582 217.341 15.6984C216.832 15.3175 216.271 15.127 215.656 15.127C214.703 15.127 213.792 15.6138 212.923 16.5873C212.076 17.5397 211.334 19.1376 210.699 21.381C210.296 22.8413 210.095 24.1005 210.095 25.1587C210.095 26.2804 210.307 27.1376 210.73 27.7302C211.175 28.3016 211.79 28.5873 212.574 28.5873C213.252 28.5873 213.771 28.4286 214.131 28.1111C214.512 27.7936 214.809 27.2434 215.021 26.4603L215.243 25.6667C215.349 25.2434 215.402 24.9577 215.402 24.8095C215.402 24.5556 215.339 24.3757 215.211 24.2698C215.106 24.164 214.915 24.0476 214.639 23.9206L213.527 23.5079C213.04 23.3175 212.796 22.9683 212.796 22.4603C212.796 22.3122 212.807 22.1958 212.828 22.1111C212.913 21.836 213.061 21.6349 213.273 21.5079C213.506 21.381 213.855 21.3175 214.322 21.3175L223.919 21.3492C224.619 21.3492 224.968 21.5714 224.968 22.0159C224.968 22.1005 224.947 22.2275 224.905 22.3968C224.82 22.7143 224.682 22.9683 224.492 23.1587C224.301 23.3492 224.025 23.5397 223.665 23.7302L222.839 24.2063C222.627 24.3333 222.468 24.4603 222.362 24.5873C222.256 24.6931 222.182 24.8307 222.14 25L220.455 30.873C220.243 31.5714 220 32.037 219.724 32.2698C219.47 32.5026 219.152 32.619 218.771 32.619H217.436C216.928 32.619 216.504 32.5132 216.165 32.3016C215.847 32.0899 215.582 31.6772 215.37 31.0635L215.053 30.1429C213.527 31.9206 211.62 32.8095 209.332 32.8095Z" fill="white"/>
</svg>
